<?xml version="1.0" encoding="UTF-8" standalone="no" ?>
<svg enable-background="new 0 0 100 99.999" viewBox="0 0 100 99.999" xmlns="http://www.w3.org/2000/svg">
	<g fill="#134b8d">
	<path d="m14.171 86.666c-1.142-1.41-2.862-2.226-4.676-2.219-3.08 0-5.416 2.708-5.416 5.723 0 3.387 2.34 5.787 5.662 5.787 1.786 0 3.262-.861 4.494-2.154v4.005c-1.39.736-2.94 1.117-4.513 1.107-4.801.001-8.722-3.693-8.722-8.616 0-5.052 3.94-8.806 8.928-8.806 1.508-.012 2.994.371 4.308 1.111z"/>
	<path d="m22.792 90.235c.034 3.093 2.568 5.574 5.662 5.541 3.093-.034 5.574-2.568 5.541-5.662-.033-3.07-2.531-5.541-5.601-5.541-3.11.018-5.617 2.552-5.602 5.662m14.283 0c .064 4.731-3.72 8.618-8.451 8.682-.09.001-.181.001-.271-.001-4.793.1-8.76-3.704-8.861-8.498-.1-4.793 3.704-8.76 8.498-8.861.121-.003.242-.003.363 0 4.731-.086 8.636 3.679 8.722 8.41.002.09.002.181.001.271"/>
	<path d="m49.014 92.267 4.74-10.221h3.508l-8.248 16.93-8.185-16.93h3.508z"/>
	<path d="m73.639 88.388c-.379-2.461-1.968-4.062-4.494-4.062-2.461 0-4.248 1.726-4.68 4.062zm-9.304 2.34c0 2.769 1.896 5.416 4.93 5.416 2.401 0 3.694-1.233 4.862-3.201l2.655 1.479c-1.49 2.797-4.416 4.531-7.585 4.494-4.987 0-8.002-3.755-8.002-8.617 0-5.048 2.708-8.802 7.942-8.802s7.638 3.815 7.638 8.677v.554z"/>
	<path d="m84.656 90.235c.034 3.093 2.568 5.574 5.662 5.541 3.093-.034 5.574-2.568 5.541-5.662-.033-3.07-2.531-5.541-5.601-5.541-3.11.018-5.617 2.552-5.602 5.662m14.343 0c .023 4.817-3.864 8.741-8.681 8.764s-8.741-3.864-8.764-8.681 3.864-8.741 8.681-8.764h.042c4.731-.086 8.636 3.679 8.722 8.41.001.09.001.18 0 .271"/>
	</g>
	<path d="m75.728 71.613-13.539-7.786v15.572z" fill="#f48020"/>
	<path d="m53.262 54.873-.647-3.014 27.724-16.006-60.367-34.853v69.705l7.363-4.251 2.218 2.108z" fill="#f58020"/>
	<path d="m34.642 58.711h-10.785c-.524 0-.95.427-.95.951s.426.951.95.951h10.785c.524 0 .951-.426.951-.951-.001-.524-.427-.951-.951-.951z" fill="#fff"/>
	<path d="m34.642 54.334h-11.281c-.524 0-.951.426-.951.95s.426.951.951.951h11.281c.524 0 .951-.426.951-.951-.001-.523-.427-.95-.951-.95z" fill="#fff"/>
	<path d="m23.958 51.859h10.684c.524 0 .951-.426.951-.95s-.426-.951-.951-.951h-10.684c-.524 0-.951.426-.951.951.001.523.427.95.951.95z" fill="#fff"/>
	<path d="m45.131 41.03v-16.313h.854c.836 0 1.516-.68 1.516-1.516s-.68-1.516-1.516-1.516h-16.249c-.836 0-1.516.68-1.516 1.516s.68 1.516 1.516 1.516h.854v16.313c-5.907 3.019-9.374 9.435-8.647 16.061.807 7.36 6.732 13.294 14.088 14.11.609.067 1.225.102 1.83.102 8.832 0 16.017-7.185 16.017-16.017 0-6.064-3.344-11.5-8.747-14.256zm-1.297 1.994c4.737 2.313 7.68 7.011 7.68 12.261 0 7.528-6.125 13.653-13.653 13.653-.519 0-1.047-.029-1.569-.087-6.265-.695-11.312-5.749-11.999-12.018-.639-5.824 2.342-11.244 7.594-13.809l1.067-.521v-18.455h9.813v18.455z" fill="#e6ecf0"/>
	
	<path d="m43.834 43.024-1.067-.521v-18.455h-9.808-.005v18.455l-1.067.521c-3.07 1.499-5.363 3.973-6.612 6.934h9.367c.524 0 .951.426.951.951 0 .524-.426.95-.951.95h-10.007c-.205.803-.339 1.631-.396 2.476h10.403c.524 0 .951.426.951.95s-.426.951-.951.951h-10.402c.013.199.031.398.053.597.07.64.186 1.267.343 1.878h10.006c.524 0 .951.427.951.951s-.426.951-.951.951h-9.36c1.241 2.918 3.481 5.329 6.277 6.791l19.941-11.514c.009-.201.013-.403.013-.605.001-5.249-2.942-9.948-7.679-12.261z" fill="#fff" opacity=".4"/>
	</svg>